<svg xmlns="http://www.w3.org/2000/svg" preserveAspectRatio="xMidYMid meet" viewBox="0 0 24 24">
    <g fill="none" fill-rule="evenodd">
        <path fill="#FFF" d="M10 8H14V19H10z"/>
        <path fill="#F8B429" d="M10.627 4.297c.61-1.063 2.138-1.063 2.745 0l7.913 13.812c.61 1.063-.155 2.391-1.368 2.391H4.086c-1.22 0-1.98-1.331-1.372-2.39zM12 16.383c-.512 0-.924.415-.924.93 0 .514.412.93.924.93.51 0 .923-.416.923-.93 0-.515-.412-.93-.923-.93zm.583-7.57h-1.17c-.113 0-.202.092-.199.205l.248 6.508c.003.11.092.193.198.193h.676c.106 0 .195-.087.198-.193l.247-6.508c.004-.113-.085-.206-.198-.206z"/>
    </g>
</svg>
