<svg xmlns="http://www.w3.org/2000/svg" width="48" height="80" viewBox="0 0 48 80">
    <g fill="none">
        <path fill="#FFF" d="M47.906 23.953v31.141c-.007 13.226-10.727 23.947-23.953 23.953C10.727 79.041.006 68.32 0 55.094V23.953C.006 10.727 10.727.006 23.953 0c13.226.006 23.946 10.727 23.953 23.953z"/>
        <path fill="#F8B429" d="M23.953 33.153c-1.795 0-3.252-1.452-3.259-3.247V23.4c0-1.8 1.46-3.259 3.259-3.259 1.8 0 3.259 1.46 3.259 3.259v6.506c-.007 1.795-1.464 3.247-3.26 3.247z"/>
        <path fill="#F8B429" d="M23.953 0h-.588v40.282c0 .325.263.589.588.589.325 0 .588-.264.588-.589V0h-.588z"/>
    </g>
</svg>
