<svg xmlns="http://www.w3.org/2000/svg" width="357" height="130" viewBox="0 0 357 130">
    <g fill="none">
        <rect width="129.942" height="356.551" x="113.305" y="-113.305" fill="#FFF" rx="15.936" transform="rotate(-90 178.276 64.97)"/>
        <g opacity=".5" transform="translate(21.015 15.177)">
            <rect width="20.548" height="20.548" x="1.273" y=".712" fill="#FFF" rx="5.207"/>
            <path fill="#F8B429" d="M16.613 21.832H6.48c-3.202 0-5.806-2.578-5.838-5.779V5.919C.642 2.695 3.256.082 6.48.082h10.133c3.224 0 5.838 2.613 5.838 5.837v10.134c-.032 3.201-2.636 5.78-5.838 5.78zM6.48 1.296c-2.58 0-4.67 2.09-4.67 4.67V16.1c.032 2.556 2.113 4.611 4.67 4.611h10.133c2.557 0 4.638-2.055 4.67-4.611V5.92c0-2.58-2.09-4.67-4.67-4.67L6.48 1.295z"/>
        </g>
        <g opacity=".5" transform="translate(21.015 40.862)">
            <rect width="20.548" height="20.548" x="1.273" y=".677" fill="#FFF" rx="5.207"/>
            <path fill="#F8B429" d="M16.613 21.797H6.48c-3.224 0-5.838-2.613-5.838-5.837V5.837C.642 2.614 3.256 0 6.48 0h10.133c3.224 0 5.838 2.614 5.838 5.837v10.134c-.007 3.22-2.618 5.826-5.838 5.826zM6.48 1.261c-2.58 0-4.67 2.09-4.67 4.67v10.134c0 2.579 2.09 4.67 4.67 4.67h10.133c2.58 0 4.67-2.091 4.67-4.67V5.837c0-2.579-2.09-4.67-4.67-4.67L6.48 1.261z"/>
        </g>
        <g opacity=".5" transform="translate(21.015 66.547)">
            <rect width="47.12" height="20.548" x="1.273" y=".63" fill="#FFF" rx="7.881"/>
            <path fill="#F8B429" d="M40.512 21.762H9.153C4.481 21.756.695 17.97.69 13.298V8.51c-.006-2.251.882-4.412 2.47-6.009C4.745.906 6.901.006 9.152 0h31.359c2.262-.012 4.435.88 6.036 2.478 1.6 1.599 2.496 3.77 2.487 6.033v4.787c-.003 2.254-.904 4.414-2.504 6.002-1.599 1.589-3.765 2.474-6.02 2.462zM9.153 1.167C5.13 1.18 1.87 4.44 1.856 8.464v4.787c.007 4.027 3.27 7.29 7.297 7.297h31.359c1.937.015 3.801-.74 5.18-2.1 1.38-1.36 2.163-3.213 2.175-5.15V8.51c.01-1.953-.763-3.828-2.145-5.207-1.381-1.38-3.258-2.149-5.21-2.137H9.153z"/>
        </g>
        <g opacity=".5" transform="translate(21.015 92.232)">
            <rect width="20.548" height="20.548" x="1.273" y=".595" fill="#FFF" rx="5.207"/>
            <path fill="#F8B429" d="M16.613 21.727H6.48c-3.224 0-5.838-2.614-5.838-5.837V5.837C.642 2.614 3.256 0 6.48 0h10.133c3.224 0 5.838 2.614 5.838 5.837v10.134c-.045 3.192-2.645 5.756-5.838 5.756zM6.48 1.167c-2.58 0-4.67 2.091-4.67 4.67v10.134c0 2.58 2.09 4.67 4.67 4.67h10.133c2.58 0 4.67-2.09 4.67-4.67V5.837c0-2.579-2.09-4.67-4.67-4.67H6.48z"/>
        </g>
        <g opacity=".5" transform="translate(47.867 92.232)">
            <rect width="20.548" height="20.548" x=".992" y=".595" fill="#FFF" rx="5.207"/>
            <path fill="#F8B429" d="M16.345 21.727H6.199c-3.224 0-5.837-2.614-5.837-5.837V5.837C.362 2.614 2.975 0 6.199 0h10.146c3.224 0 5.837 2.614 5.837 5.837v10.134c-.044 3.192-2.645 5.756-5.837 5.756zM6.199 1.167c-2.579 0-4.67 2.091-4.67 4.67v10.134c0 2.58 2.091 4.67 4.67 4.67h10.146c2.579 0 4.67-2.09 4.67-4.67V5.837c0-2.579-2.091-4.67-4.67-4.67H6.199z"/>
        </g>
        <g opacity=".5" transform="translate(74.72 92.232)">
            <rect width="100.521" height="20.548" x=".712" y=".595" fill="#FFF" rx="5.697"/>
            <path fill="#F8B429" d="M95.547 21.727H6.41c-3.47 0-6.282-2.812-6.282-6.281V6.293c-.003-1.668.658-3.269 1.836-4.45C3.142.664 4.742 0 6.41 0h89.137c3.465.006 6.27 2.817 6.27 6.281v9.153c.003 1.666-.656 3.265-1.832 4.445-1.175 1.18-2.772 1.845-4.438 1.848zM6.41 1.167c-2.825 0-5.114 2.29-5.114 5.114v9.153c0 2.824 2.29 5.114 5.114 5.114h89.137c2.82-.007 5.102-2.294 5.102-5.114V6.293c.003-1.356-.532-2.658-1.49-3.62-.956-.96-2.255-1.502-3.612-1.506H6.41z"/>
        </g>
        <g opacity=".5" transform="translate(74.72 66.547)">
            <rect width="20.548" height="20.548" x=".712" y=".63" fill="#FFF" rx="5.207"/>
            <path fill="#F8B429" d="M16.053 21.762H5.919c-3.224 0-5.837-2.614-5.837-5.837V5.837C.082 2.614 2.695 0 5.919 0h10.134c3.224 0 5.837 2.614 5.837 5.837v10.134c-.025 3.206-2.631 5.791-5.837 5.791zM5.919 1.167c-2.579 0-4.67 2.091-4.67 4.67v10.134c0 2.58 2.091 4.67 4.67 4.67h10.134c2.58 0 4.67-2.09 4.67-4.67V5.837c0-2.579-2.09-4.67-4.67-4.67H5.919z"/>
        </g>
        <g opacity=".5" transform="translate(100.404 66.547)">
            <rect width="20.548" height="20.548" x="1.599" y=".63" fill="#FFF" rx="5.207"/>
            <path fill="#F8B429" d="M16.94 21.762H6.806c-3.223 0-5.837-2.614-5.837-5.837V5.837C.969 2.614 3.583 0 6.806 0H16.94c3.224 0 5.838 2.614 5.838 5.837v10.134c-.026 3.206-2.632 5.791-5.838 5.791zM6.806 1.167c-2.579 0-4.67 2.091-4.67 4.67v10.134c0 2.58 2.091 4.67 4.67 4.67H16.94c2.58 0 4.67-2.09 4.67-4.67V5.837c0-2.579-2.09-4.67-4.67-4.67H6.806z"/>
        </g>
        <g opacity=".5" transform="translate(47.867 40.862)">
            <rect width="20.548" height="20.548" x=".992" y=".677" fill="#FFF" rx="5.207"/>
            <path fill="#F8B429" d="M16.345 21.797H6.199c-3.224 0-5.837-2.613-5.837-5.837V5.837C.362 2.614 2.975 0 6.199 0h10.146c3.224 0 5.837 2.614 5.837 5.837v10.134c-.006 3.22-2.618 5.826-5.837 5.826zM6.199 1.261c-2.579 0-4.67 2.09-4.67 4.67v10.134c0 2.579 2.091 4.67 4.67 4.67h10.146c2.579 0 4.67-2.091 4.67-4.67V5.837c0-2.579-2.091-4.67-4.67-4.67l-10.146.094z"/>
        </g>
        <g opacity=".5" transform="translate(74.72 40.862)">
            <rect width="20.548" height="20.548" x=".712" y=".677" fill="#FFF" rx="5.207"/>
            <path fill="#F8B429" d="M16.053 21.797H5.919c-3.224 0-5.837-2.613-5.837-5.837V5.837C.082 2.614 2.695 0 5.919 0h10.134c3.224 0 5.837 2.614 5.837 5.837v10.134c-.006 3.22-2.618 5.826-5.837 5.826zM5.919 1.261c-2.579 0-4.67 2.09-4.67 4.67v10.134c0 2.579 2.091 4.67 4.67 4.67h10.134c2.58 0 4.67-2.091 4.67-4.67V5.837c0-2.579-2.09-4.67-4.67-4.67l-10.134.094z"/>
        </g>
        <g opacity=".5" transform="translate(100.404 40.862)">
            <rect width="20.548" height="20.548" x="1.599" y=".677" fill="#FFF" rx="5.207"/>
            <path fill="#F8B429" d="M16.94 21.797H6.806C3.583 21.797.97 19.184.97 15.96V5.837C.969 2.614 3.583 0 6.806 0H16.94c3.224 0 5.838 2.614 5.838 5.837v10.134c-.007 3.22-2.618 5.826-5.838 5.826zM6.806 1.261c-2.579 0-4.67 2.09-4.67 4.67v10.134c0 2.579 2.091 4.67 4.67 4.67H16.94c2.58 0 4.67-2.091 4.67-4.67V5.837c0-2.579-2.09-4.67-4.67-4.67l-10.134.094z"/>
        </g>
        <g opacity=".5" transform="translate(47.867 15.177)">
            <rect width="20.548" height="20.548" x=".992" y=".712" fill="#FFF" rx="5.207"/>
            <path fill="#F8B429" d="M16.345 21.832H6.199c-3.2 0-5.805-2.578-5.837-5.779V5.919C.362 2.695 2.975.082 6.199.082h10.146c3.224 0 5.837 2.613 5.837 5.837v10.134c-.032 3.201-2.636 5.78-5.837 5.78zM6.199 1.296c-2.579 0-4.67 2.09-4.67 4.67V16.1c.032 2.556 2.114 4.611 4.67 4.611h10.146c2.556 0 4.638-2.055 4.67-4.611V5.92c0-2.58-2.091-4.67-4.67-4.67l-10.146.046z"/>
        </g>
        <g opacity=".5" transform="translate(74.72 15.177)">
            <rect width="20.548" height="20.548" x=".712" y=".712" fill="#FFF" rx="5.207"/>
            <path fill="#F8B429" d="M16.053 21.832H5.919c-3.201 0-5.805-2.578-5.837-5.779V5.919C.082 2.695 2.695.082 5.919.082h10.134c3.224 0 5.837 2.613 5.837 5.837v10.134c-.032 3.201-2.636 5.78-5.837 5.78zM5.919 1.296c-2.579 0-4.67 2.09-4.67 4.67V16.1c.032 2.556 2.114 4.611 4.67 4.611h10.134c2.557 0 4.638-2.055 4.67-4.611V5.92c0-2.58-2.09-4.67-4.67-4.67l-10.134.046z"/>
        </g>
        <g opacity=".5" transform="translate(100.404 15.177)">
            <rect width="20.548" height="20.548" x="1.599" y=".712" fill="#FFF" rx="5.207"/>
            <path fill="#F8B429" d="M16.94 21.832H6.806c-3.2 0-5.805-2.578-5.837-5.779V5.919C.969 2.695 3.583.082 6.806.082H16.94c3.224 0 5.838 2.613 5.838 5.837v10.134c-.032 3.201-2.636 5.78-5.838 5.78zM6.806 1.296c-2.579 0-4.67 2.09-4.67 4.67V16.1c.032 2.556 2.114 4.611 4.67 4.611H16.94c2.557 0 4.638-2.055 4.67-4.611V5.92c0-2.58-2.09-4.67-4.67-4.67l-10.134.046z"/>
        </g>
        <g opacity=".5" transform="translate(127.256 15.177)">
            <rect width="20.548" height="20.548" x="1.261" y=".712" fill="#FFF" rx="5.207"/>
            <path fill="#F8B429" d="M16.602 21.832H6.468c-3.201 0-5.806-2.578-5.838-5.779V5.919C.63 2.695 3.244.082 6.468.082h10.134c3.224 0 5.837 2.613 5.837 5.837v10.134c-.032 3.201-2.636 5.78-5.837 5.78zM6.468 1.296c-2.58 0-4.67 2.09-4.67 4.67V16.1c.032 2.556 2.113 4.611 4.67 4.611h10.134c2.556 0 4.638-2.055 4.67-4.611V5.92c0-2.58-2.091-4.67-4.67-4.67l-10.134.046z"/>
        </g>
        <g opacity=".5" transform="translate(127.256 40.862)">
            <rect width="20.548" height="20.548" x="1.261" y=".677" fill="#FFF" rx="5.207"/>
            <path fill="#F8B429" d="M16.602 21.797H6.468C3.244 21.797.63 19.184.63 15.96V5.837C.63 2.614 3.244 0 6.468 0h10.134c3.224 0 5.837 2.614 5.837 5.837v10.134c-.006 3.22-2.618 5.826-5.837 5.826zM6.468 1.261c-2.58 0-4.67 2.09-4.67 4.67v10.134c0 2.579 2.09 4.67 4.67 4.67h10.134c2.579 0 4.67-2.091 4.67-4.67V5.837c0-2.579-2.091-4.67-4.67-4.67l-10.134.094z"/>
        </g>
        <g opacity=".5" transform="translate(127.256 66.547)">
            <rect width="20.548" height="20.548" x="1.261" y=".63" fill="#FFF" rx="5.207"/>
            <path fill="#F8B429" d="M16.602 21.762H6.468c-3.224 0-5.838-2.614-5.838-5.837V5.837C.63 2.614 3.244 0 6.468 0h10.134c3.224 0 5.837 2.614 5.837 5.837v10.134c-.025 3.206-2.632 5.791-5.837 5.791zM6.468 1.167c-2.58 0-4.67 2.091-4.67 4.67v10.134c0 2.58 2.09 4.67 4.67 4.67h10.134c2.579 0 4.67-2.09 4.67-4.67V5.837c0-2.579-2.091-4.67-4.67-4.67H6.468z"/>
        </g>
        <g opacity=".5" transform="translate(154.109 66.547)">
            <rect width="20.548" height="20.548" x=".981" y=".63" fill="#FFF" rx="5.207"/>
            <path fill="#F8B429" d="M16.345 21.762H6.188c-3.224 0-5.838-2.614-5.838-5.837V5.837C.35 2.614 2.964 0 6.188 0h10.157c3.224 0 5.837 2.614 5.837 5.837v10.134c-.025 3.206-2.631 5.791-5.837 5.791zM6.188 1.167c-2.58 0-4.67 2.091-4.67 4.67v10.134c0 2.58 2.09 4.67 4.67 4.67h10.157c2.579 0 4.67-2.09 4.67-4.67V5.837c0-2.579-2.091-4.67-4.67-4.67H6.188z"/>
        </g>
        <g opacity=".5" transform="translate(180.96 66.547)">
            <rect width="47.12" height="20.548" x=".7" y=".63" fill="#FFF" rx="7.881"/>
            <path fill="#F8B429" d="M39.94 21.762H8.58C3.91 21.756.123 17.97.117 13.298V8.51C.11 6.26.999 4.099 2.587 2.502 4.173.906 6.33.006 8.58 0H39.94c4.672.006 8.458 3.792 8.464 8.464v4.787c.01 2.252-.878 4.415-2.466 6.012-1.588 1.597-3.746 2.496-5.998 2.499zM8.58 1.167C4.556 1.18 1.297 4.44 1.284 8.464v4.787c.007 4.027 3.27 7.29 7.297 7.297H39.94c4.027-.007 7.29-3.27 7.297-7.297V8.464c-.013-4.024-3.273-7.284-7.297-7.297H8.58z"/>
        </g>
        <g opacity=".5" transform="translate(180.96 92.232)">
            <rect width="20.548" height="20.548" x=".7" y=".595" fill="#FFF" rx="5.207"/>
            <path fill="#F8B429" d="M16.041 21.727H5.907C2.684 21.727.07 19.113.07 15.89V5.837C.07 2.614 2.684 0 5.907 0h10.134c3.224 0 5.838 2.614 5.838 5.837v10.134c-.045 3.192-2.645 5.756-5.838 5.756zM5.907 1.167c-2.579 0-4.67 2.091-4.67 4.67v10.134c0 2.58 2.091 4.67 4.67 4.67h10.134c2.58 0 4.67-2.09 4.67-4.67V5.837c0-2.579-2.09-4.67-4.67-4.67H5.907z"/>
        </g>
        <g opacity=".5" transform="translate(206.646 92.232)">
            <rect width="20.548" height="20.548" x="1.588" y=".595" fill="#FFF" rx="5.207"/>
            <path fill="#F8B429" d="M16.929 21.727H6.795c-3.224 0-5.838-2.614-5.838-5.837V5.837C.957 2.614 3.571 0 6.795 0h10.134c3.224 0 5.837 2.614 5.837 5.837v10.134c-.045 3.192-2.645 5.756-5.837 5.756zM6.795 1.167c-2.58 0-4.67 2.091-4.67 4.67v10.134c0 2.58 2.09 4.67 4.67 4.67h10.134c2.579 0 4.67-2.09 4.67-4.67V5.837c0-2.579-2.091-4.67-4.67-4.67H6.795z"/>
        </g>
        <g opacity=".5" transform="translate(154.109 40.862)">
            <rect width="20.548" height="20.548" x=".981" y=".677" fill="#FFF" rx="5.207"/>
            <path fill="#F8B429" d="M16.345 21.797H6.188C2.964 21.797.35 19.184.35 15.96V5.837C.35 2.614 2.964 0 6.188 0h10.157c3.224 0 5.837 2.614 5.837 5.837v10.134c-.006 3.22-2.618 5.826-5.837 5.826zM6.188 1.261c-2.58 0-4.67 2.09-4.67 4.67v10.134c0 2.579 2.09 4.67 4.67 4.67h10.157c2.579 0 4.67-2.091 4.67-4.67V5.837c0-2.579-2.091-4.67-4.67-4.67l-10.157.094z"/>
        </g>
        <g opacity=".5" transform="translate(180.96 40.862)">
            <rect width="20.548" height="20.548" x=".7" y=".677" fill="#FFF" rx="5.207"/>
            <path fill="#F8B429" d="M16.041 21.797H5.907C2.684 21.797.07 19.184.07 15.96V5.837C.07 2.614 2.684 0 5.907 0h10.134c3.224 0 5.838 2.614 5.838 5.837v10.134c-.007 3.22-2.618 5.826-5.838 5.826zM5.907 1.261c-2.579 0-4.67 2.09-4.67 4.67v10.134c0 2.579 2.091 4.67 4.67 4.67h10.134c2.58 0 4.67-2.091 4.67-4.67V5.837c0-2.579-2.09-4.67-4.67-4.67l-10.134.094z"/>
        </g>
        <g opacity=".5" transform="translate(206.646 40.862)">
            <rect width="20.548" height="20.548" x="1.588" y=".677" fill="#FFF" rx="5.207"/>
            <path fill="#F8B429" d="M16.929 21.797H6.795c-3.224 0-5.838-2.613-5.838-5.837V5.837C.957 2.614 3.571 0 6.795 0h10.134c3.224 0 5.837 2.614 5.837 5.837v10.134c-.006 3.22-2.618 5.826-5.837 5.826zM6.795 1.261c-2.58 0-4.67 2.09-4.67 4.67v10.134c0 2.579 2.09 4.67 4.67 4.67h10.134c2.579 0 4.67-2.091 4.67-4.67V5.837c0-2.579-2.091-4.67-4.67-4.67l-10.134.094z"/>
        </g>
        <g opacity=".5" transform="translate(154.109 15.177)">
            <rect width="20.548" height="20.548" x=".981" y=".712" fill="#FFF" rx="5.207"/>
            <path fill="#F8B429" d="M16.345 21.832H6.188c-3.202 0-5.806-2.578-5.838-5.779V5.919C.35 2.695 2.964.082 6.188.082h10.157c3.224 0 5.837 2.613 5.837 5.837v10.134c-.032 3.201-2.636 5.78-5.837 5.78zM6.188 1.296c-2.58 0-4.67 2.09-4.67 4.67V16.1c.032 2.556 2.113 4.611 4.67 4.611h10.157c2.556 0 4.638-2.055 4.67-4.611V5.92c0-2.58-2.091-4.67-4.67-4.67l-10.157.046z"/>
        </g>
        <g opacity=".5" transform="translate(180.96 15.177)">
            <rect width="20.548" height="20.548" x=".7" y=".712" fill="#FFF" rx="5.207"/>
            <path fill="#F8B429" d="M16.041 21.832H5.907c-3.2 0-5.805-2.578-5.837-5.779V5.919C.07 2.695 2.684.082 5.907.082h10.134c3.224 0 5.838 2.613 5.838 5.837v10.134c-.032 3.201-2.636 5.78-5.838 5.78zM5.907 1.296c-2.579 0-4.67 2.09-4.67 4.67V16.1c.032 2.556 2.114 4.611 4.67 4.611h10.134c2.557 0 4.638-2.055 4.67-4.611V5.92c0-2.58-2.09-4.67-4.67-4.67l-10.134.046z"/>
        </g>
        <g opacity=".5" transform="translate(206.646 15.177)">
            <rect width="20.548" height="20.548" x="1.588" y=".712" fill="#FFF" rx="5.207"/>
            <path fill="#F8B429" d="M16.929 21.832H6.795c-3.201 0-5.806-2.578-5.838-5.779V5.919C.957 2.695 3.571.082 6.795.082h10.134c3.224 0 5.837 2.613 5.837 5.837v10.134c-.032 3.201-2.636 5.78-5.837 5.78zM6.795 1.296c-2.58 0-4.67 2.09-4.67 4.67V16.1c.032 2.556 2.113 4.611 4.67 4.611h10.134c2.556 0 4.638-2.055 4.67-4.611V5.92c0-2.58-2.091-4.67-4.67-4.67l-10.134.046z"/>
        </g>
        <g opacity=".5" transform="translate(287.203 66.547)">
            <rect width="20.548" height="20.548" x=".689" y=".63" fill="#FFF" rx="5.207"/>
            <path fill="#F8B429" d="M16.03 21.762H5.896c-3.224 0-5.838-2.614-5.838-5.837V5.837C.058 2.614 2.672 0 5.896 0H16.03c3.224 0 5.837 2.614 5.837 5.837v10.134c-.026 3.206-2.632 5.791-5.837 5.791zM5.896 1.167c-2.58 0-4.67 2.091-4.67 4.67v10.134c0 2.58 2.09 4.67 4.67 4.67H16.03c2.579 0 4.67-2.09 4.67-4.67V5.837c0-2.579-2.091-4.67-4.67-4.67H5.896z"/>
        </g>
        <g opacity=".5" transform="translate(260.35 92.232)">
            <rect width="20.548" height="20.548" x=".969" y=".595" fill="#FFF" rx="5.207"/>
            <path fill="#F8B429" d="M16.345 21.727H6.21c-3.224 0-5.837-2.614-5.837-5.837V5.837C.374 2.614 2.987 0 6.21 0h10.134c3.224 0 5.837 2.614 5.837 5.837v10.134c-.044 3.192-2.645 5.756-5.837 5.756zM6.176 1.167c-2.58 0-4.67 2.091-4.67 4.67v10.134c0 2.58 2.09 4.67 4.67 4.67h10.169c2.579 0 4.67-2.09 4.67-4.67V5.837c0-2.579-2.091-4.67-4.67-4.67H6.176z"/>
        </g>
        <g opacity=".5" transform="translate(287.203 92.232)">
            <rect width="20.548" height="20.548" x=".689" y=".595" fill="#FFF" rx="5.207"/>
            <path fill="#F8B429" d="M16.03 21.727H5.896c-3.224 0-5.838-2.614-5.838-5.837V5.837C.058 2.614 2.672 0 5.896 0H16.03c3.224 0 5.837 2.614 5.837 5.837v10.134c-.045 3.192-2.645 5.756-5.837 5.756zM5.896 1.167c-2.58 0-4.67 2.091-4.67 4.67v10.134c0 2.58 2.09 4.67 4.67 4.67H16.03c2.579 0 4.67-2.09 4.67-4.67V5.837c0-2.579-2.091-4.67-4.67-4.67H5.896z"/>
        </g>
        <g opacity=".5" transform="translate(312.887 92.232)">
            <rect width="20.548" height="20.548" x="1.576" y=".595" fill="#FFF" rx="5.207"/>
            <path fill="#F8B429" d="M16.917 21.727H6.783c-3.224 0-5.837-2.614-5.837-5.837V5.837C.946 2.614 3.559 0 6.783 0h10.134c3.224 0 5.837 2.614 5.837 5.837v10.134c-.044 3.192-2.645 5.756-5.837 5.756zM6.783 1.167c-2.579 0-4.67 2.091-4.67 4.67v10.134c0 2.58 2.091 4.67 4.67 4.67h10.134c2.58 0 4.67-2.09 4.67-4.67V5.837c0-2.579-2.09-4.67-4.67-4.67H6.783z"/>
        </g>
        <g opacity=".5" transform="translate(260.35 15.177)">
            <rect width="20.548" height="20.548" x=".969" y=".712" fill="#FFF" rx="5.207"/>
            <path fill="#F8B429" d="M16.345 21.832H6.21c-3.201 0-5.805-2.578-5.837-5.779V5.919C.374 2.695 2.987.082 6.21.082h10.134c3.224 0 5.837 2.613 5.837 5.837v10.134c-.032 3.201-2.636 5.78-5.837 5.78zM6.21 1.296c-2.58 0-4.67 2.09-4.67 4.67V16.1c.032 2.556 2.114 4.611 4.67 4.611h10.134c2.556 0 4.638-2.055 4.67-4.611V5.92c0-2.58-2.091-4.67-4.67-4.67L6.21 1.295z"/>
        </g>
        <g opacity=".5" transform="translate(287.203 15.177)">
            <rect width="20.548" height="20.548" x=".689" y=".712" fill="#FFF" rx="5.207"/>
            <path fill="#F8B429" d="M16.03 21.832H5.896c-3.201 0-5.806-2.578-5.838-5.779V5.919C.058 2.695 2.672.082 5.896.082H16.03c3.224 0 5.837 2.613 5.837 5.837v10.134c-.032 3.201-2.636 5.78-5.837 5.78zM5.896 1.296c-2.58 0-4.67 2.09-4.67 4.67V16.1c.032 2.556 2.113 4.611 4.67 4.611H16.03c2.556 0 4.638-2.055 4.67-4.611V5.92c0-2.58-2.091-4.67-4.67-4.67l-10.134.046z"/>
        </g>
        <g opacity=".5" transform="translate(312.887 15.177)">
            <rect width="20.548" height="20.548" x="1.576" y=".712" fill="#FFF" rx="5.207"/>
            <path fill="#F8B429" d="M16.917 21.832H6.783c-3.201 0-5.805-2.578-5.837-5.779V5.919C.946 2.695 3.559.082 6.783.082h10.134c3.224 0 5.837 2.613 5.837 5.837v10.134c-.032 3.201-2.636 5.78-5.837 5.78zM6.783 1.296c-2.579 0-4.67 2.09-4.67 4.67V16.1c.032 2.556 2.114 4.611 4.67 4.611h10.134c2.556 0 4.638-2.055 4.67-4.611V5.92c0-2.58-2.09-4.67-4.67-4.67l-10.134.046z"/>
        </g>
    </g>
</svg>
