<svg xmlns="http://www.w3.org/2000/svg" preserveAspectRatio="xMidYMid meet" viewBox="0 0 24 24">
    <path fill="#CBCDCB" d="M7.496 16.031c1.102 0 1.995.889 1.995 1.985S8.598 20 7.496 20 5.5 19.112 5.5 18.016s.893-1.985 1.995-1.985zm11.594.58c.779-.775 2.042-.775 2.82 0 .78.775.78 2.032 0 2.806-.778.775-2.041.775-2.82 0-.78-.774-.78-2.03 0-2.806zM8.507 7.404c1.983-.03 3.938.468 5.662 1.443 1.17-.463 2.376-.83 3.606-1.1 3.26-.678 5.938-.074 6.144.227.227.334-.073 2.186-.29 2.881-.507 1.629-1.44 3.094-2.704 4.245-.14-.023-.283-.035-.425-.036-1.338.004-2.509.897-2.858 2.182-.136.07-.276.14-.426.204-.616.235-1.249.423-1.893.563-1.366.236-3.16.041-4.962-.743-.341-1.297-1.518-2.202-2.865-2.206-.132.002-.264.013-.394.032-1.263-1.152-2.193-2.617-2.696-4.246-.218-.7-.496-2.585-.29-2.886.205-.3 1.73-.56 4.39-.56zM4.352 4c.102 0 .204.007.305.022 1.315.168 2.196 1.166 2.196 2.164 0 .106 0 .13-.165.152-.108.015-.217.023-.326.024H2.51c-.106 0-.212-.008-.317-.022C.878 6.172 0 5.171 0 4.176c0-.106 0-.133.162-.152C.268 4.008.376 4 .484 4z"/>
</svg>
