<svg xmlns="http://www.w3.org/2000/svg" xmlns:xlink="http://www.w3.org/1999/xlink" preserveAspectRatio="xMidYMid meet" viewBox="0 0 24 24">
    <defs>
        <filter id="prefix__a" width="200%" height="200%" x="-50%" y="-50%" filterUnits="objectBoundingBox">
            <feOffset in="SourceAlpha" result="shadowOffsetOuter1"/>
            <feGaussianBlur in="shadowOffsetOuter1" result="shadowBlurOuter1" stdDeviation="4"/>
            <feColorMatrix in="shadowBlurOuter1" values="0 0 0 0 0.195073892 0 0 0 0 0.204926108 0 0 0 0 0.197044335 0 0 0 0.15 0"/>
        </filter>
        <circle id="prefix__b" cx="12" cy="12" r="12"/>
    </defs>
    <g fill="none" fill-rule="evenodd">
        <use fill="#000" filter="url(#prefix__a)" xlink:href="#prefix__b"/>
        <use fill="#FFF" xlink:href="#prefix__b"/>
        <g fill="#009FAE" fill-rule="nonzero">
            <path d="M9.167 8l3.525-3.526.727-.727c.107-.107.107-.281 0-.388l-.778-.778c-.107-.107-.281-.107-.388 0L8 6.833 3.747 2.58c-.107-.107-.281-.107-.388 0l-.779.778c-.107.108-.107.282 0 .39L6.833 8 2.58 12.253c-.107.107-.107.281 0 .388l.778.778c.108.107.282.107.39 0L8 9.167l3.525 3.525.728.727c.107.107.281.107.388 0l.778-.778c.107-.107.107-.281 0-.388L9.167 8z" transform="translate(4 4)"/>
        </g>
    </g>
</svg>
