<svg xmlns="http://www.w3.org/2000/svg" preserveAspectRatio="xMidYMid meet" viewBox="0 0 24 24">
    <g fill="none" fill-rule="evenodd" transform="translate(3 3)">
        <circle cx="8.873" cy="8.873" r="7.606" fill="#FFF"/>
        <path fill="#009FAE" fill-rule="nonzero" d="M8.997 0c4.97 0 8.998 4.028 8.998 8.997 0 4.97-4.028 8.998-8.998 8.998C4.028 17.995 0 13.967 0 8.997 0 4.028 4.028 0 8.997 0zm-.352 13.852c-.283-.007-.557.1-.76.297-.2.189-.31.453-.305.728-.008.277.102.545.304.735.205.194.479.3.76.291.287.009.565-.096.774-.291.206-.188.32-.457.312-.735.005-.276-.109-.541-.312-.728-.208-.198-.486-.305-.773-.297zm.37-11.479l-.264.002c-1.044.056-2.026.52-2.733 1.29-.426.48-.728 1.056-.88 1.68-.196.755-.146 1.555.143 2.28.396-.032.772-.186 1.077-.44.314-.312.505-.727.535-1.169.111-.91.827-1.626 1.737-1.737 2.109-.256 2.593 1.615 2.317 2.376-.22.613-.59 1.052-1.313 1.58-.5.335-.937.757-1.288 1.247-.32.517-.495 1.11-.507 1.718v1.983c.479-.014.93-.226 1.247-.586.308-.355.474-.812.467-1.282.129-1.268 1.594-1.854 2.281-2.536.769-.755 1.18-1.8 1.133-2.877.051-1.412-1.262-3.62-4.216-3.527z"/>
    </g>
</svg>
