<svg xmlns="http://www.w3.org/2000/svg" preserveAspectRatio="xMidYMid meet" viewBox="0 0 82 82">
    <g fill="none" fill-rule="evenodd">
        <path fill="#BFE7EB" d="M48.575 8.866l1.932.517c17.07 4.574 27.202 22.121 22.627 39.192l-.517 1.932c-4.574 17.07-22.121 27.202-39.192 22.627l-1.932-.517C14.423 68.043 4.291 50.496 8.866 33.425l.517-1.932c4.574-17.07 22.121-27.202 39.192-22.627z"/>
        <text fill="#009FAE" font-family="NotoSansCJKtc-Medium, Noto Sans CJK TC" font-size="14" font-weight="400" transform="rotate(15 37.894 52.591)">
            <tspan x="16.894" y="57.591">已使用</tspan>
        </text>
        <g>
            <path fill="#009FAE" d="M12.043 9.252c.12-.858.321-1.673.593-2.436-.92-.341-1.948-.534-3.094-.534-2.48 0-3.777 1.998-5.613 2.024-.958.013-2.778.106-3.68.253-.188.03-.268.107-.245.223.024.12.11.169.374.135 1.362-.177 2.842-.205 3.906-.14 2.074.13 3.213.753 3.862 1.896 1.96 3.45 3.23 5.354 6.442 6.448-2.595-2.29-2.817-5.905-2.545-7.87" transform="rotate(15 -42.362 145.936)"/>
            <path fill="#009FAD" d="M17.03 10.43c-2.603 2.066-3.03 5.198-2.442 6.691 3.226 1.098 4.212 4.319 4.47 6.285.024.184.047.322.197.34.107.013.177-.088.22-.286.19-.875.375-2.677.155-5.274-.193-2.28-.959-5.32-2.6-7.756" transform="rotate(15 -42.362 145.936)"/>
            <path fill="#009FAE" d="M17.4 10.153c-2.932 2.052-3.427 5.407-2.812 6.968-2.595-2.29-2.817-5.905-2.545-7.87C12.813 3.706 17.046 0 21.27 0c.452 0 .558 0 .646.684.142 1.091.775 5.766-4.515 9.469" transform="rotate(15 -42.362 145.936)"/>
        </g>
    </g>
</svg>
