<svg xmlns="http://www.w3.org/2000/svg" preserveAspectRatio="xMidYMid meet" viewBox="0 0 24 24">
    <path fill="#636864" d="M19.5 7.94v13.235c-.004 1.01-.827 1.825-1.84 1.825H6.338c-1.015-.001-1.838-.821-1.838-1.832v-1.26c0-4.288 1.407-6.901 4.2-9.17 2.913-2.364 6.218-2.799 8.848-2.799H19.5zm-3.392 3.72c-.407 0-.743.305-.792.699l-.007.1v7.311c0 .44.358.798.799.798.407 0 .743-.304.792-.698l.006-.1v-7.311c0-.44-.357-.798-.798-.798zm-4.109 2.203c-.407 0-.743.305-.792.699l-.006.1v5.106c0 .441.357.798.798.798.407 0 .743-.304.792-.698l.006-.1v-5.106c0-.441-.357-.799-.798-.799zm-4.109 2.25c-.407 0-.743.305-.792.699l-.006.1v2.856c0 .441.357.798.798.798.407 0 .743-.304.792-.698l.007-.1v-2.856c0-.441-.358-.798-.799-.798zM13.276 1c.66 0 1.196.533 1.196 1.191V2.4h3.32c.943 0 1.708.762 1.708 1.702v1.48h-3.215c-5.253 0-9.886 2.68-11.785 6.736V4.1c0-.94.765-1.702 1.709-1.702h3.305v-.208c0-.316.127-.62.352-.843.224-.223.53-.348.847-.348h2.563z"/>
</svg>
