<svg xmlns="http://www.w3.org/2000/svg" width="16" height="16" viewBox="0 0 16 16">
    <path fill="#CBCDCB" d="M8 2C4.685 2 2 4.685 2 8s2.685 6 6 6 6-2.685 6-6-2.685-6-6-6zm0 10.839c-2.669 0-4.839-2.17-4.839-4.839 0-2.669 2.17-4.839 4.839-4.839 2.669 0 4.839 2.17 4.839 4.839 0 2.669-2.17 4.839-4.839 4.839zM6.065 7.613c.428 0 .774-.346.774-.774 0-.429-.346-.774-.774-.774-.429 0-.775.345-.775.774 0 .428.346.774.775.774zm3.87 0c.429 0 .775-.346.775-.774 0-.429-.346-.774-.775-.774-.428 0-.774.345-.774.774 0 .428.346.774.774.774zm.097 1.756c-.503.605-1.246.954-2.032.954s-1.529-.346-2.032-.954c-.206-.246-.574-.278-.818-.075-.247.206-.278.571-.075.818.726.871 1.793 1.37 2.925 1.37s2.2-.499 2.925-1.37c.206-.247.172-.612-.075-.818-.244-.203-.612-.171-.818.075z"/>
</svg>
