<svg xmlns="http://www.w3.org/2000/svg" width="120" height="84" viewBox="0 0 120 84">
    <g fill="none">
        <path fill="#81D0D7" d="M81.856 41.607l25.545-7.298v33.19c-.007 2.731-1.864 5.11-4.512 5.78L62.54 83.367c-1.899.466-3.882.466-5.78 0L16.453 73.279c-2.657-.657-4.522-3.043-4.52-5.78v-33.19l25.546 7.31c.804.238 1.64.357 2.48.353 3.167-.009 6.1-1.67 7.738-4.381l11.97-19.877 11.99 19.877c1.634 2.703 4.56 4.357 7.72 4.363.839.006 1.674-.11 2.48-.347z"/>
        <path fill="#009FAE" d="M119.025 21.04l-9.602-19.175c-.58-1.16-1.829-1.826-3.114-1.66L59.667 6.153l17.099 28.36c.714 1.178 2.124 1.734 3.45 1.362l36.9-10.535c.872-.251 1.589-.875 1.957-1.705.368-.83.351-1.78-.048-2.595zM9.927 1.865L.324 21.04c-.407.81-.431 1.758-.067 2.588.364.83 1.08 1.453 1.95 1.7l36.901 10.536c1.325.372 2.736-.185 3.45-1.361l17.11-28.35L13.021.213c-1.277-.159-2.515.503-3.095 1.652z"/>
    </g>
</svg>
