<svg xmlns="http://www.w3.org/2000/svg" width="24" height="24" viewBox="0 0 24 24">
    <g fill="none" fill-rule="evenodd">
        <circle cx="12" cy="12" r="6" fill="#FFF"/>
        <path fill="#E94752" d="M12 3c4.97 0 9 4.031 9 9 0 4.972-4.03 9-9 9s-9-4.028-9-9c0-4.969 4.03-9 9-9zm0 12.048c-.561 0-1.016.455-1.016 1.017 0 .56.455 1.016 1.016 1.016.561 0 1.016-.455 1.016-1.016 0-.562-.455-1.017-1.016-1.017zm.417-7.693h-.834c-.248 0-.445.206-.435.453l.254 6.097c.01.233.202.418.435.418h.326c.233 0 .425-.184.435-.418l.254-6.097c.01-.247-.187-.453-.435-.453z"/>
    </g>
</svg>
