<svg xmlns="http://www.w3.org/2000/svg" width="24" height="24" viewBox="0 0 24 24">
    <g fill="none">
        <path fill="#2274F3" d="M8 0C3.582 0 0 3.582 0 8s3.582 8 8 8 8-3.582 8-8-3.582-8-8-8z" transform="translate(4 4)"/>
        <path fill="#FFF" d="M9.083 10.12h2.07l.325-2.103H9.083v-1.15c0-.873.285-1.648 1.102-1.648H11.5V3.384c-.231-.031-.72-.1-1.641-.1-1.926 0-3.055 1.017-3.055 3.334v1.4H4.824v2.102h1.98v5.781C7.194 15.96 7.591 16 8 16c.368 0 .728-.034 1.083-.082V10.12z" transform="translate(4 4)"/>
    </g>
</svg>
