<svg xmlns="http://www.w3.org/2000/svg" xmlns:xlink="http://www.w3.org/1999/xlink" width="52" height="48" viewBox="0 0 52 48">
    <defs>
        <path id="prefix__a" d="M0 0H52V48H0z"/>
    </defs>
    <g fill="none" fill-rule="evenodd">
        <mask id="prefix__b" fill="#fff">
            <use xlink:href="#prefix__a"/>
        </mask>
        <path fill-rule="nonzero" stroke="#009FAE" d="M1.62.523C-12.415.483-25.572.502-38.754.52c-12.444.017-24.911.034-38.16.003-2.26-.005-4.515.148-6.752.46-1.377.18-2.131.33-2.515.695-.4.378-.32.983-.32 1.905 0 10.24 4.63 20.475 12.674 28.5 7.608 7.592 18.272 13.209 30.984 14.997 2.017.275 4.052.415 6.09.42h79.131c2.101-.017 4.203-.17 6.289-.46 1.377-.185 2.132-.337 2.516-.701.397-.377.317-.979.317-1.899 0-10.223-4.643-20.484-12.703-28.527C31.189 8.322 20.535 2.704 7.844.943 5.782.67 3.702.53 1.62.524z" mask="url(#prefix__b)"/>
    </g>
</svg>
