<svg xmlns="http://www.w3.org/2000/svg" width="24" height="24" viewBox="0 0 24 24">
    <path fill="#323432" d="M18.571 18.857h-1.307l-5.01-14.472c-.079-.23-.296-.385-.54-.385h-.571c-.244 0-.46.154-.54.385l-5.01 14.472H4.286c-.158 0-.286.128-.286.286v.571c0 .158.128.286.286.286h4c.158 0 .285-.128.285-.286v-.571c0-.158-.127-.286-.285-.286H6.803l1.582-4.571h6.087l1.583 4.571H14.57c-.157 0-.285.128-.285.286v.571c0 .158.128.286.285.286h4c.158 0 .286-.128.286-.286v-.571c0-.158-.128-.286-.286-.286zm-9.79-5.714l2.648-7.65 2.647 7.65H8.781z"/>
</svg>
