<svg xmlns="http://www.w3.org/2000/svg" width="16" height="16" viewBox="0 0 16 16">
    <path fill="#CBCDCB" d="M6.028 4.452C5.932 4.182 5.665 4 5.366 4H4.334c-.3 0-.566.182-.663.452L1.018 11.56c-.036.102-.018.214.048.301.065.087.171.139.284.139h1.107c.15 0 .284-.091.332-.227l.417-1.106h3.288l.417 1.106c.048.136.181.227.332.227H8.35c.113 0 .218-.052.284-.139.066-.087.083-.2.048-.3L6.028 4.45zM3.834 9L4.85 6.307 5.865 9h-2.03zM14.65 6h-.7c-.193 0-.35.15-.35.333v.038c-.413-.23-.888-.371-1.4-.371-1.546.002-2.798 1.195-2.8 2.667v.666c.002 1.472 1.254 2.665 2.8 2.667.512 0 .987-.141 1.4-.371v.038c0 .184.157.333.35.333h.7c.193 0 .35-.15.35-.333V6.333C15 6.15 14.843 6 14.65 6zm-1.4 3.333c0 .553-.47 1-1.05 1-.58 0-1.05-.447-1.05-1v-.666c0-.553.47-1 1.05-1 .58 0 1.05.447 1.05 1v.666z"/>
</svg>
