<svg xmlns="http://www.w3.org/2000/svg" width="24" height="24" viewBox="0 0 24 24">
    <g fill="none">
        <path fill="#FFC107" d="M15.844 6.433H15.2V6.4H8v3.2h4.521c-.66 1.863-2.432 3.2-4.521 3.2-2.65 0-4.8-2.15-4.8-4.8S5.35 3.2 8 3.2c1.224 0 2.337.462 3.184 1.216l2.263-2.263C12.018.82 10.107 0 8 0 3.582 0 0 3.582 0 8s3.582 8 8 8 8-3.582 8-8c0-.536-.055-1.06-.156-1.567z" transform="translate(4 4)"/>
        <path fill="#FF3D00" d="M.922 4.276l2.629 1.928C4.262 4.444 5.984 3.2 8 3.2c1.224 0 2.337.462 3.184 1.216l2.263-2.263C12.018.82 10.107 0 8 0 4.927 0 2.262 1.735.922 4.276z" transform="translate(4 4)"/>
        <path fill="#4CAF50" d="M8 16c2.066 0 3.944-.79 5.364-2.077l-2.476-2.095c-.804.608-1.802.972-2.888.972-2.08 0-3.848-1.327-4.513-3.178l-2.609 2.01C2.202 14.222 4.891 16 8 16z" transform="translate(4 4)"/>
        <path fill="#1976D2" d="M15.844 6.433H15.2V6.4H8v3.2h4.521c-.317.895-.892 1.666-1.635 2.228h.002l2.476 2.095C13.188 14.082 16 12 16 8c0-.536-.055-1.06-.156-1.567z" transform="translate(4 4)"/>
    </g>
</svg>
