<svg xmlns="http://www.w3.org/2000/svg" preserveAspectRatio="xMidYMid meet" viewBox="0 0 24 24">
    <path fill="#009FAE" d="M20.518 6.734H3.482C3.216 6.734 3 6.52 3 6.255V4.98c0-.265.216-.479.482-.479h17.036c.266 0 .482.214.482.479v1.276c0 .265-.216.479-.482.479zm0 6.383H3.482c-.266 0-.482-.214-.482-.479v-1.276c0-.265.216-.479.482-.479h17.036c.266 0 .482.214.482.479v1.276c0 .265-.216.479-.482.479zm0 6.383H3.482c-.266 0-.482-.214-.482-.479v-1.276c0-.265.216-.479.482-.479h17.036c.266 0 .482.214.482.479v1.276c0 .265-.216.479-.482.479z"/>
</svg>
