<svg xmlns="http://www.w3.org/2000/svg" xmlns:xlink="http://www.w3.org/1999/xlink" preserveAspectRatio="xMidYMid meet" viewBox="0 0 37 41">
    <defs>
        <path id="prefix__a" d="M0 0.064L24.314 0.064 24.314 18.129 0 18.129z"/>
        <path id="prefix__c" d="M0.167 0.06L9.124 0.06 9.124 22.256 0.167 22.256z"/>
    </defs>
    <g fill="none" fill-rule="evenodd" opacity=".504">
        <g transform="translate(0 10.406)">
            <mask id="prefix__b" fill="#fff">
                <use xlink:href="#prefix__a"/>
            </mask>
            <path fill="#009FAE" d="M20.072 5.014c.198-1.43.535-2.788.988-4.06-1.534-.569-3.247-.89-5.156-.89-4.134 0-6.295 3.33-9.355 3.373-1.597.022-4.631.177-6.135.422-.312.05-.446.178-.408.372.04.2.186.282.625.225 2.269-.295 4.736-.342 6.51-.232 3.456.214 5.354 1.254 6.436 3.158 3.267 5.751 5.383 8.924 10.737 10.747-4.325-3.816-4.696-9.84-4.242-13.115" mask="url(#prefix__b)"/>
        </g>
        <g transform="translate(23.76 17.323)">
            <mask id="prefix__d" fill="#fff">
                <use xlink:href="#prefix__c"/>
            </mask>
            <path fill="#009FAD" d="M4.623.06C.285 3.503-.426 8.724.555 11.212c5.375 1.83 7.018 7.198 7.448 10.475.04.307.08.536.33.567.178.021.295-.146.367-.477.317-1.459.624-4.462.257-8.79C8.635 9.187 7.359 4.121 4.623.06" mask="url(#prefix__d)"/>
        </g>
        <path fill="#009FAE" d="M29 16.922c-4.887 3.42-5.711 9.01-4.686 11.613-4.325-3.816-4.696-9.84-4.242-13.115C21.353 6.175 28.41 0 35.448 0c.754 0 .93 0 1.078 1.14.236 1.818 1.29 9.61-7.525 15.782"/>
    </g>
</svg>
