<svg xmlns="http://www.w3.org/2000/svg" preserveAspectRatio="xMidYMid meet" viewBox="0 0 16 16">
    <path fill="#CBCDCB" d="M5 6.286c.71 0 1.286-.576 1.286-1.286 0-.71-.576-1.286-1.286-1.286-.71 0-1.286.576-1.286 1.286 0 .71.576 1.286 1.286 1.286zM5 4.57c.237 0 .429.192.429.429s-.192.429-.429.429-.429-.192-.429-.429.192-.429.429-.429zM13.143 2H2.857C2.384 2 2 2.384 2 2.857v10.286c0 .473.384.857.857.857h10.286c.473 0 .857-.384.857-.857V2.857c0-.473-.384-.857-.857-.857zm0 11.143H2.857V11h10.286v2.143zm-8.86-3l1.392-1.857 1.071 1.428-.321.429H4.282zm3.213 0l2.036-2.714 2.036 2.714H7.496zm5.647 0h-.504L9.875 6.457c-.162-.216-.524-.216-.686 0L7.282 9 6.018 7.315c-.162-.217-.524-.217-.686 0L3.21 10.143h-.353V2.857h10.286v7.286z"/>
</svg>
