<svg xmlns="http://www.w3.org/2000/svg" width="40" height="40" viewBox="0 0 40 40">
    <g fill="none" fill-rule="evenodd">
        <path d="M0 0H40V40H0z"/>
        <path fill="#D4D4D4" fill-rule="nonzero" d="M30.625 38.007c1.863 0 3.375-1.512 3.375-3.375v-23.35c0-.894-.359-1.759-.991-2.391l-5.9-5.9C26.477 2.36 25.62 2 24.726 2H10.375C8.512 2.007 7 3.519 7 5.382v29.25c0 1.863 1.512 3.375 3.375 3.375h20.25zm0-3.375h-20.25V5.382h11.25v7.312c0 .936.752 1.688 1.687 1.688h7.313v20.25zm-.274-23.625H25v-5.35l5.35 5.35zM16 21.132c1.863 0 3.375-1.512 3.375-3.375S17.863 14.382 16 14.382s-3.375 1.512-3.375 3.375 1.512 3.375 3.375 3.375zm12.375 10.125v-9l-1.652-1.652c-.33-.33-.865-.33-1.196 0l-6.152 6.152-2.777-2.777c-.33-.33-.865-.33-1.196 0l-2.777 2.777v4.5h15.75z"/>
    </g>
</svg>
