<?xml version="1.0" encoding="UTF-8"?>
<svg width="80px" height="33px" viewBox="0 0 80 33" version="1.1" xmlns="http://www.w3.org/2000/svg" xmlns:xlink="http://www.w3.org/1999/xlink">
    <title>84130890-A0F3-4E20-A4B9-0CEA754D9046</title>
    <defs>
        <polygon id="path-1" points="0 0.0513924812 19.4511398 0.0513924812 19.4511398 14.5033624 0 14.5033624"></polygon>
        <polygon id="path-3" points="0.133362006 0.0476390977 7.29908437 0.0476390977 7.29908437 17.8045113 0.133362006 17.8045113"></polygon>
        <polygon id="path-5" points="0.0592325922 0.096481203 13.4718791 0.096481203 13.4718791 22.9244632 0.0592325922 22.9244632"></polygon>
        <polygon id="path-7" points="0.125040602 0.125642105 3.5207218 0.125642105 3.5207218 3.27872481 0.125040602 3.27872481"></polygon>
    </defs>
    <g id="2.-客製化編輯" stroke="none" stroke-width="1" fill="none" fill-rule="evenodd">
        <g id="2-5-4.-編輯頁_客製化製作_選擇分類" transform="translate(-64.000000, -12.000000)">
            <g id="Moduel-/-navi-/-header-/-default">
                <g id="Group-21" transform="translate(64.000000, 12.000000)">
                    <g id="Group-3" transform="translate(0.000000, 8.565173)">
                        <mask id="mask-2" fill="white">
                            <use xlink:href="#path-1"></use>
                        </mask>
                        <g id="Clip-2"></g>
                        <path d="M16.0574556,4.01121203 C16.2162526,2.86691128 16.4854857,1.78107669 16.8483128,0.763572932 C15.6210045,0.308354887 14.2500571,0.0513924812 12.7229594,0.0513924812 C9.41589173,0.0513924812 7.68716992,2.71509173 5.23880902,2.74949774 C3.96169624,2.76754286 1.53426767,2.89097143 0.331500752,3.08682105 C0.0815157895,3.12772331 -0.0255518797,3.22997895 0.00500451128,3.38468571 C0.0367639098,3.54468571 0.153215038,3.61012932 0.504493233,3.56465564 C2.31983158,3.32886617 4.29324511,3.29085113 5.71255338,3.37915188 C8.47778647,3.55046015 9.99598195,4.38221955 10.8616662,5.90594887 C13.4748391,10.5067308 15.1679519,13.0445955 19.4511398,14.5033624 C15.9912902,11.4503699 15.694388,6.6306406 16.0574556,4.01121203" id="Fill-1" fill="#F7B42A" mask="url(#mask-2)"></path>
                    </g>
                    <g id="Group-6" transform="translate(19.007519, 14.099008)">
                        <mask id="mask-4" fill="white">
                            <use xlink:href="#path-3"></use>
                        </mask>
                        <g id="Clip-5"></g>
                        <path d="M3.69843008,0.0476390977 C0.227993985,2.80252632 -0.340547368,6.97888722 0.443813534,8.96962406 C4.74384361,10.4336842 6.05873083,14.7279398 6.40255038,17.3497744 C6.43479098,17.5954286 6.46630977,17.7785263 6.66624962,17.8030677 C6.80892632,17.820391 6.9022797,17.6861353 6.96002406,17.4214737 C7.21337744,16.254797 7.45903158,13.852391 7.16549774,10.3896541 C6.90805414,7.34989474 5.88742256,3.29696241 3.69843008,0.0476390977" id="Fill-4" fill="#009FAD" mask="url(#mask-4)"></path>
                    </g>
                    <g id="Group-9" transform="translate(15.879699, 0.144120)">
                        <mask id="mask-6" fill="white">
                            <use xlink:href="#path-5"></use>
                        </mask>
                        <g id="Clip-8"></g>
                        <path d="M7.32085414,13.6336361 C3.4105985,16.3704782 2.75135038,20.8425383 3.5715609,22.9244632 C0.111470677,19.8714707 -0.185190977,15.0517414 0.177876692,12.4323128 C1.2030797,5.03670376 6.84855338,0.0961924812 12.4786286,0.0964330827 C13.0822977,0.0964330827 13.222809,0.0964330827 13.3409444,1.00855338 C13.5295759,2.46323008 14.3738466,8.69697444 7.32085414,13.6336361" id="Fill-7" fill="#E84752" mask="url(#mask-6)"></path>
                    </g>
                    <g id="Group-12" transform="translate(75.789474, 7.362165)">
                        <mask id="mask-8" fill="white">
                            <use xlink:href="#path-7"></use>
                        </mask>
                        <g id="Clip-11"></g>
                        <path d="M3.03559699,0.566664662 C2.71222857,0.272890226 2.30825865,0.125642105 1.82296541,0.125642105 C1.33767218,0.125642105 0.933461654,0.272890226 0.610333835,0.566664662 C0.286724812,0.860679699 0.125040602,1.23577744 0.125040602,1.69123609 C0.125040602,2.14717594 0.286724812,2.52564211 0.610333835,2.82663459 C0.933461654,3.12834887 1.33767218,3.27872481 1.82296541,3.27872481 C2.30825865,3.27872481 2.71222857,3.12834887 3.03559699,2.82663459 C3.35896541,2.52564211 3.52089023,2.14717594 3.52089023,1.69123609 C3.52089023,1.23577744 3.35896541,0.860679699 3.03559699,0.566664662" id="Fill-10" fill="#F7B42A" mask="url(#mask-8)"></path>
                    </g>
                    <path d="M43.6528361,7.66931729 C43.6292571,7.48790376 43.6013474,7.48790376 43.4812872,7.48790376 C42.3615278,7.48790376 41.2386406,8.4705203 41.0346105,9.94155789 C41.0194526,10.0517534 41.0100692,10.1819188 41.0112722,10.3238737 L41.0110316,10.3241143 L41.0110316,14.1908211 L33.999182,14.1908211 L33.999182,8.04489624 C34.000385,7.87214436 33.9828211,7.74005414 33.9734376,7.66787368 C33.9500992,7.48790376 33.9224301,7.48790376 33.8030917,7.48790376 C32.6924752,7.48790376 31.5789714,8.46233985 31.3768662,9.92134737 C31.3629113,10.0204752 31.354009,10.1354827 31.3535278,10.2610767 L31.3532872,10.2613173 L31.3532872,22.7887158 C31.354009,22.9484752 31.3701293,23.0709414 31.3790316,23.1395128 C31.4023699,23.3192421 31.4300391,23.3192421 31.5491368,23.3192421 C32.659994,23.3194827 33.7734977,22.344806 33.975603,20.8860391 C33.9897985,20.7849865 33.9987008,20.6673323 33.9989414,20.5390917 L33.999182,20.5388511 L33.999182,16.5061293 L41.0110316,16.5061293 L41.0110316,22.7622496 C41.0103098,22.9342797 41.0276331,23.0656481 41.0370165,23.1380692 C41.0605955,23.3192421 41.0885053,23.3192421 41.2085654,23.3192421 C42.3283248,23.3194827 43.451212,22.3366256 43.6552421,20.865588 C43.6694376,20.7626105 43.6785805,20.6423098 43.6785805,20.5114226 L43.6788211,20.5109414 L43.6788211,8.02468571 C43.6780992,7.8627609 43.6617383,7.73861053 43.6528361,7.66931729" id="Fill-13" fill="#E84752"></path>
                    <path d="M55.9583038,12.0658045 C55.936409,11.8978647 55.9106647,11.8978647 55.7995068,11.8978647 C54.7627549,11.8978647 53.723597,12.8075789 53.5347248,14.1691429 C53.5207699,14.2692331 53.5123489,14.3871278 53.5130707,14.515609 L53.5128301,14.5158496 L53.5128301,18.6888421 C53.5128301,19.3945263 53.2700632,19.9825564 52.7852511,20.4526917 C52.3001985,20.9235489 51.6678977,21.1586165 50.8888301,21.1586165 C50.1684692,21.1586165 49.6247098,20.9786466 49.2570707,20.6182256 C48.8896722,20.2582857 48.7058526,19.7619248 48.7058526,19.1298647 L48.7058526,12.3992782 C48.7053714,12.2479398 48.6902135,12.1319699 48.6817925,12.0672481 C48.6596571,11.8978647 48.6336722,11.8978647 48.5215519,11.8978647 C47.4756571,11.8978647 46.4271158,12.8155188 46.2365594,14.1893534 C46.2233263,14.284391 46.2149053,14.3950677 46.2146647,14.515609 L46.2144241,14.5158496 L46.2144241,19.2843308 C46.2144241,20.0633985 46.3830857,20.7582556 46.721612,21.3679398 C47.0596571,21.9781053 47.5336421,22.4561805 48.1438075,22.8009624 C48.7537323,23.1462256 49.4408902,23.3192181 50.2052812,23.3192181 C51.0137023,23.3192181 51.7376722,23.1317895 52.377191,22.7569323 C52.8458827,22.4821654 53.2609203,22.1296842 53.6230256,21.7006917 L53.6230256,21.9523609 L53.6230256,22.8288722 C53.6225444,22.9799699 53.6377023,23.0954586 53.6461233,23.1589774 C53.6670556,23.3192181 53.691597,23.3192181 53.7979429,23.3192181 C54.7882586,23.3194586 55.7812211,22.450406 55.9616722,21.1494737 C55.9737023,21.0599699 55.9818827,20.9557895 55.9823639,20.8422256 L55.9823639,20.841985 L55.9823639,12.3992782 C55.9821233,12.247218 55.9667248,12.1307669 55.9583038,12.0658045" id="Fill-15" fill="#E84752"></path>
                    <path d="M78.823194,12.0658045 C78.8012992,11.8978647 78.7755549,11.8978647 78.664397,11.8978647 C77.6276451,11.8978647 76.5882466,12.8075789 76.399615,14.1691429 C76.386382,14.2644211 76.3779609,14.3755789 76.3777176,14.4968421 L76.3777176,14.4970827 L76.3777176,22.8117895 C76.3774797,22.9669774 76.3931188,23.085594 76.4017805,23.1515188 C76.4234346,23.3192181 76.4494195,23.3192181 76.5605774,23.3192181 C77.5970887,23.3194586 78.6367278,22.4097444 78.8253594,21.0481805 C78.8383519,20.9533835 78.8467729,20.843188 78.8472541,20.7231278 L78.8472541,20.7228872 L78.8472541,12.403609 C78.8472541,12.2493835 78.831615,12.1312481 78.823194,12.0658045" id="Fill-17" fill="#E84752"></path>
                    <path d="M70.0494677,11.8979368 C69.3141895,11.8979368 68.6676932,12.0629895 68.1092571,12.3938165 C67.5503398,12.7246436 67.0802045,13.1914105 66.6978887,13.7941173 C66.1834827,12.5297564 65.2870015,11.8979368 64.0082045,11.8979368 C63.3025203,11.8979368 62.6923549,12.0781474 62.1779489,12.4378466 C61.8059789,12.698418 61.4460391,13.0460872 61.0976481,13.4786887 L61.0976481,13.2426586 L61.0976481,12.4082526 C61.1000541,12.246809 61.0834526,12.1231398 61.0750316,12.0569744 C61.0543398,11.8979368 61.0300391,11.8979368 60.9246556,11.8979368 C59.9434827,11.8979368 58.9596632,12.758809 58.7808962,14.0477113 C58.767182,14.1461173 58.7590015,14.2623278 58.7604451,14.3891248 L58.7602018,14.3893654 L58.7602018,22.8181173 C58.7599639,22.9718617 58.775603,23.0895158 58.7840241,23.1544782 C58.8054376,23.3192903 58.8307008,23.3192903 58.9399338,23.3192903 C59.9581594,23.3195308 60.978791,22.4259368 61.1640541,21.0886737 C61.1784902,20.9854556 61.1871519,20.8632301 61.1854677,20.7294556 L61.1857083,20.729215 L61.1857083,16.3738466 C61.1857083,15.6681624 61.3731368,15.0950496 61.747994,14.6540271 C62.1228511,14.2130045 62.6261895,13.9926135 63.2582496,13.9926135 C64.3166556,13.9926135 64.8459789,14.639591 64.8459789,15.9328241 L64.8459789,22.8243729 C64.8457383,22.9757113 64.8611368,23.0916812 64.8695579,23.1559218 C64.8907308,23.3192903 64.9157534,23.3192903 65.0237835,23.3192903 C66.0328662,23.3195308 67.0443549,22.4341173 67.2279338,21.1088842 C67.2409263,21.0164932 67.2488662,20.9087038 67.2491068,20.7912902 L67.2493474,20.7910496 L67.2493474,16.3076812 C67.2493474,15.5432902 67.443994,14.9663278 67.8335278,14.5765534 C68.2228211,14.1872602 68.7045053,13.9926135 69.2778586,13.9926135 C69.821618,13.9926135 70.2258286,14.1653654 70.4904902,14.5106286 C70.7551519,14.8561323 70.8874827,15.3301173 70.8874827,15.9328241 L70.8874827,22.8181173 C70.8870015,22.9718617 70.9028812,23.0895158 70.9110617,23.1544782 C70.9324752,23.3192903 70.9577383,23.3192903 71.0669714,23.3192903 C72.085197,23.3195308 73.1060692,22.4259368 73.2915729,21.0886737 C73.304806,20.9926737 73.3129865,20.8800722 73.312751,20.7571248 L73.312751,20.7568842 L73.312751,15.7343278 C73.312751,14.6174556 73.0223398,13.6985985 72.4417684,12.9782376 C71.8609564,12.2581173 71.0638436,11.8979368 70.0494677,11.8979368" id="Fill-19" fill="#E84752"></path>
                </g>
            </g>
        </g>
    </g>
</svg>