<svg xmlns="http://www.w3.org/2000/svg" preserveAspectRatio="xMidYMid meet" viewBox="0 0 24 24">
    <path fill="#CBCDCB" d="M14.997 14.573c1.06-.501 2.307-.336 3.206.426 1.621 1.369 2.63 3.35 2.796 5.492.009.131-.036.26-.124.357-.088.097-.212.152-.34.152H3.467c-.13 0-.253-.055-.341-.152-.088-.096-.134-.225-.126-.357.165-2.14 1.17-4.12 2.786-5.492.898-.762 2.146-.927 3.205-.426 1.912.864 4.093.864 6.005 0zM8.496 4.479c1.931-1.972 5.063-1.972 6.995 0 1.932 1.972 1.932 5.17 0 7.141-1.932 1.972-5.064 1.972-6.995 0-1.932-1.972-1.932-5.169 0-7.141z"/>
</svg>
