<svg xmlns="http://www.w3.org/2000/svg" preserveAspectRatio="xMidYMid meet" viewBox="0 0 24 24">
    <path fill="#323432" d="M6.938 12.281c-.468 0-.844.376-.844.844 0 .468.376.844.843.844.468 0 .844-.376.844-.844 0-.468-.376-.844-.843-.844zm1.125-3.937c-.468 0-.844.376-.844.844 0 .467.376.843.843.843.468 0 .844-.376.844-.844 0-.467-.376-.843-.844-.843zM12 3c-.594 0-1.202.056-1.818.176-3.494.682-6.31 3.49-7 6.975C1.967 16.307 7.093 21 11.42 21c.292 0 .58-.021.865-.067 1.448-.225 2.158-1.92 1.494-3.224-.812-1.596.348-3.459 2.14-3.459h2.803c1.258 0 2.278-1.04 2.282-2.296C20.986 7.004 16.96 3 12 3zm6.718 10.125h-2.802c-1.24 0-2.37.63-3.012 1.68-.64 1.045-.69 2.32-.13 3.418.172.337.168.759-.004 1.1-.084.162-.278.443-.657.503-.222.035-.454.053-.693.053-1.92 0-4.011-1.1-5.467-2.87-1.547-1.884-2.14-4.24-1.666-6.633.6-3.045 3.058-5.492 6.113-6.09.535-.105 1.073-.157 1.6-.157 4.328 0 7.86 3.512 7.875 7.825 0 .644-.52 1.171-1.157 1.171zm-2.78-5.344c-.468 0-.844.376-.844.844 0 .468.376.844.844.844.467 0 .843-.376.843-.844 0-.468-.376-.844-.843-.844zm-4.5-1.687c-.468 0-.844.376-.844.843 0 .468.376.844.844.844.467 0 .843-.376.843-.843 0-.468-.376-.844-.844-.844z"/>
</svg>
