<svg xmlns="http://www.w3.org/2000/svg" preserveAspectRatio="xMidYMid meet" width="24" height="24" viewBox="0 0 24 24">
    <g fill="#636864">
        <path d="M9.676 6.192l6.22.028.029-6.22c-1.001.991-1.71 2.512-1.719 4.514-2.002-.01-3.524.685-4.53 1.678z" transform="translate(4 4)"/>
        <path d="M7.705 15.744c1.462-.056 2.34-.443 2.34-.443-.52.074-1.048.084-1.57.028-3.776-.33-6.408-3.59-6.408-7.027 0-3.322 2.767-6.025 6.025-6.025 2.169.005 4.168 1.172 5.239 3.058l1.82-1.023C13.71 1.765 11.016.185 8.091.172 3.417.173 0 3.835 0 8.303c0 4.467 3.865 7.588 7.705 7.442z" transform="translate(4 4)"/>
    </g>
</svg>
