<?xml version="1.0" encoding="UTF-8"?>
<svg width="24px" height="24px" viewBox="0 0 24 24" version="1.1" xmlns="http://www.w3.org/2000/svg" xmlns:xlink="http://www.w3.org/1999/xlink">
    <title>6EBF858F-30C0-4F40-BA2F-18AC7CBCC76C</title>
    <g id="2.-客製化編輯" stroke="none" stroke-width="1" fill="none" fill-rule="evenodd">
        <g id="2-2.-編輯頁_客製化製作_邊框編輯" transform="translate(-1192.000000, -237.000000)" fill="#009FAE" fill-rule="nonzero">
            <g id="Atom-/-icon-/-restart" transform="translate(1192.000000, 237.000000)">
                <path d="M9.19605604,6.99131986 L9.19605604,5.21379311 C9.19605604,5.13281472 9.14971852,5.05878648 9.07636226,5.02257184 C9.003006,4.9863572 8.91522292,4.99417257 8.84961109,5.04275961 L2.09084127,9.88667271 C2.03384075,9.92679212 2,9.99164433 2,10.0607604 C2,10.1298764 2.03384075,10.1947287 2.09084127,10.2348481 L8.84961109,15.0909778 C8.91618855,15.1374852 9.00338451,15.1437366 9.07606805,15.1072133 C9.14875159,15.07069 9.19495229,14.9974072 9.19605604,14.9168902 L9.19605604,12.9866549 C14.7639213,12.9866549 20.2606417,15.4758032 21.2257383,19.8310492 C21.2462721,19.9255568 21.3284737,19.9947056 21.4262373,19.9997107 C21.5240009,20.0047159 21.613005,19.9443323 21.6433282,19.8524284 C23.3446204,14.590094 18.9212608,6.99437403 9.19605604,6.99131986 Z" id="Path"></path>
            </g>
        </g>
    </g>
</svg>