<svg xmlns="http://www.w3.org/2000/svg" preserveAspectRatio="xMidYMid meet" viewBox="0 0 24 24">
    <path fill="#323432" d="M8.5 12c-.78 0-1.42.595-1.493 1.356L7 13.5v7c0 .78.595 1.42 1.356 1.493L8.5 22h11c.78 0 1.42-.595 1.493-1.356L21 20.5v-7c0-.78-.595-1.42-1.356-1.493L19.5 12h-11zm.222 1.5h10.556c.098 0 .181.034.21.082l.012.037v6.762c0 .052-.064.097-.152.113l-.07.006H8.722c-.098 0-.181-.034-.21-.082l-.012-.037v-6.762c0-.065.1-.119.222-.119zM9.75 2.59v1.965C5.985 4.6 3 5.391 3 9.13c0 1.508.928 3.003 1.953 3.784.32.244.776-.062.658-.457-1.063-3.561.504-4.506 4.139-4.561v2.159c0 .508.57.772.93.446l4.125-3.733c.26-.234.26-.656 0-.892L10.68 2.144c-.36-.327-.93-.062-.93.446z"/>
</svg>
