<svg xmlns="http://www.w3.org/2000/svg" preserveAspectRatio="xMidYMid meet" viewBox="0 0 24 24">
    <path fill="#CBCDCB" d="M21.836 20.637l-5.81-5.72c2.507-3.198 2.081-7.76-.977-10.453-3.058-2.694-7.71-2.606-10.66.201-2.952 2.808-3.2 7.382-.569 10.482 2.63 3.1 7.247 3.676 10.579 1.317l4.384 4.313c.376.357.851.597 1.366.69.46.08.935.016 1.357-.183.233-.131.488-.298.494-.396-.039-.093-.094-.178-.164-.251zM4.825 10.198c.002-2.722 2.245-4.928 5.01-4.927 2.765.001 5.006 2.209 5.006 4.931s-2.243 4.93-5.008 4.93c-2.763-.004-5.003-2.208-5.008-4.928v-.006z"/>
</svg>
