<svg xmlns="http://www.w3.org/2000/svg" width="245" height="160" viewBox="0 0 245 160">
    <g fill="none" transform="translate(54)">
        <path fill="#E74753" d="M152.157 83.184c-1.569-.784-3.247-2.259-3.232-2.855 0-.337 1.255-1.004 1.828-1.215 4.157-1.569 8.337 0 9.937 2.917.165.314.212.385-.235.706-.698.51-3.71 2.753-8.298.447zM3.875 110.588c-1.695-.337-3.726-1.325-3.867-1.898-.086-.337.941-1.302 1.443-1.663 3.592-2.596 8.031-2.211 10.345.204.251.26.306.322 0 .785-.58.65-2.902 3.576-7.921 2.572zM9.051 120.91c-1.569.69-3.812 1.027-4.259.635-.259-.227.047-1.608.251-2.188 1.475-4.18 5.357-6.377 8.628-5.71.353.078.439.094.4.635-.071.87-.322 4.596-5.02 6.628z"/>
        <path fill="#009DAC" d="M55.733 20.965c-.11-1.718.33-3.922.847-4.228.298-.164 1.498.588 1.977.98 3.404 2.808 4.188 7.2 2.447 10.056-.188.305-.235.376-.737.156-.792-.36-4.212-1.858-4.534-6.964z"/>
        <path fill="#F4B125" d="M145.64 122.04c-.675-1.57-.997-3.828-.605-4.267.228-.26 1.608.054 2.189.258 4.172 1.514 6.345 5.404 5.647 8.675-.071.353-.087.431-.636.384-.862-.031-4.596-.345-6.596-5.05z"/>
        <path fill="#E74753" d="M159.694 30.157c.282-.306.573-.612.879-.91 12.674-12.337 8.91-24.698 8.054-27.584-.533-1.812-.823-1.765-2.047-1.569-9.686 1.569-18.22 10.369-20.392 22.36v-.14c-2.847-.544-5.77-.574-8.627-.087-6.706 1.09-9.334 7.06-14.283 7.938-3.32.588-6.606 1.358-9.843 2.306-.494.164-.674.407-.564.705.11.299.376.416 1.074.204 3.432-1.008 6.946-1.71 10.502-2.094 5.663-.564 9.012.628 11.27 3.428 6.816 8.47 11.083 13.059 20.252 14.604 9.168 1.545 13.286 9.827 14.847 15.035.14.486.266.847.682.832.298 0 .44-.314.47-.871.134-2.447-.164-7.404-1.897-14.33-1.444-6.062-4.871-13.96-10.377-19.827z"/>
        <path fill="#F4B125" d="M84.157 87.16c-13.569-3.772-17.067-13.976-17.96-16.525-.613-1.764-.354-1.89.744-2.439 6.792-3.396 15.561-2.816 23.208 1.569.36-.424.73-.855 1.13-1.294 2.025-2.013 4.394-3.646 6.996-4.824 6.094-2.808 11.545.635 16.086-1.388 3.042-1.355 6.158-2.538 9.333-3.545.494-.141.784 0 .855.266.07.267-.078.542-.784.785-3.369 1.066-6.634 2.433-9.757 4.086-4.95 2.667-7.059 5.49-7.341 9.035-.07.785-.134 1.569-.204 2.306 7.913.141 15.035 3.459 19.192 9.004.73.98.902 1.208-.431 2.51-1.993 1.937-10.008 9.827-24.502 6.518-.796.993-1.658 1.931-2.58 2.807-6.683 6.353-5.491 15.389-3.86 20.51.15.486.251.847-.102 1.059-.353.212-.533 0-.862-.447-1.46-1.937-3.922-6.157-6.361-12.792-1.962-5.518-2.91-11.345-2.8-17.2z"/>
        <path fill="#009DAC" d="M43.655 86.173c.918 6.988 2.44 11.647 3.45 13.85.228.502.471.73.746.636.274-.094.369-.518.33-1.012-.456-5.349.297-14.44 8.195-19.2 7.899-4.76 10.126-10.51 13.334-20.76 1.059-3.397 3.71-5.703 9.121-7.24 3.407-.936 6.89-1.566 10.408-1.882.714-.063.918-.243.91-.573-.008-.33-.259-.478-.784-.447-3.319.291-6.618.77-9.883 1.435-4.87.989-9.411-3.545-16.007-2.117-2.784.589-5.44 1.67-7.844 3.192l.071.125C49.38 41.93 38.345 36.941 28.871 39.004c-1.193.267-1.475.33-1.31 2.188.25 2.965 1.27 15.686 17.396 22.432.392.164.784.345 1.137.525-2.957 7.404-3.24 15.851-2.44 22.024z"/>
        <path fill="#E74753" d="M30.04 72.078c2.715-1.98 5.858-3.297 9.176-3.843-1.692-2.445-2.94-5.169-3.687-8.047-.494-1.796-.235-1.906.895-2.353 8.94-3.757 20.698-.862 28.784 8.063l-.11-.18c2.095-1.928 4.517-3.466 7.153-4.542 6.188-2.596 11.514 1.028 16.125-.839 3.077-1.244 6.219-2.32 9.412-3.223.502-.126.785 0 .847.298.063.298-.102.54-.784.73-3.401.953-6.711 2.208-9.89 3.748-5.043 2.494-7.224 5.247-7.647 8.785-1.27 10.658-2.447 16.737-9.31 22.839s-5.977 15.192-4.557 20.392c.133.486.22.855-.141 1.059-.36.204-.533-.04-.847-.487-1.396-1.984-3.741-6.274-5.914-12.996-1.427-4.485-2.198-9.153-2.29-13.858-.722.047-1.482.086-2.353.11C37.435 88.344 31.2 77.2 29.725 74.611c-.894-1.624-.666-1.796.314-2.534z"/>
        <circle cx="47.843" cy="150.761" r="8.863" fill="#01617F"/>
        <circle cx="101.804" cy="150.761" r="8.863" fill="#01617F"/>
        <path fill="#01617F" d="M119.741 96.949c.336-.574.359-1.279.061-1.874-.297-.594-.875-.999-1.535-1.075L34.259 83.804S21.709 71.435 7.96 71.435c-.399.003-.797.03-1.192.079-.596.078-.596.172-.596.564 0 3.044 2.352 6.11 5.74 7.734 5.122 2.54 12.754 7.623 20.346 22.149 4.666 8.933 6.392 19.506 6.62 26.196.054 1.71.14 3.247.11 5.263-.01.53.195 1.042.566 1.42.372.379.88.593 1.41.595h66.933c.539 0 1.054-.22 1.426-.61.372-.389.568-.914.543-1.452-.502-10.98 2.557-20.989 6.188-29.232 1.09-2.466 2.32-4.867 3.686-7.192z"/>
    </g>
</svg>
