<svg xmlns="http://www.w3.org/2000/svg" preserveAspectRatio="xMidYMid meet" viewBox="0 0 24 24">
    <g fill="#666">
        <path d="M6.248 6.192l-6.22.028L0 0c1.002.991 1.71 2.512 1.72 4.514 2.001-.01 3.519.685 4.528 1.678z" transform="translate(4 4)"/>
        <path d="M8.22 15.744c-1.462-.056-2.34-.443-2.34-.443.521.074 1.049.084 1.572.028 3.775-.33 6.407-3.59 6.407-7.027 0-3.322-2.767-6.025-6.025-6.025-2.168.006-4.167 1.173-5.239 3.058L.783 4.312C2.221 1.767 4.912.187 7.834.172c4.673 0 8.091 3.662 8.091 8.13 0 4.467-3.864 7.588-7.706 7.442z" transform="translate(4 4)"/>
    </g>
</svg>
