<svg xmlns="http://www.w3.org/2000/svg" width="24" height="24" viewBox="0 0 24 24">
    <path fill="#414141" d="M12.526 19.891l3.884-3.89c.147-.147.147-.385 0-.531l-.616-.613c-.15-.15-.39-.147-.534.006l-2.187 2.288V6.85l2.187 2.287c.147.15.388.153.534.007l.613-.613c.147-.147.147-.384 0-.531l-3.881-3.89c-.147-.148-.385-.148-.531 0L8.11 8c-.147.147-.147.384 0 .531l.613.613c.15.15.39.146.534-.007l2.188-2.287v10.3l-2.188-2.288c-.147-.15-.387-.153-.534-.006l-.613.613c-.147.146-.147.384 0 .53l3.885 3.891c.146.147.384.147.53 0z"/>
</svg>
