<svg xmlns="http://www.w3.org/2000/svg" width="24" height="24" viewBox="0 0 24 24">
    <path fill="#414141" d="M8.53 16.408l.614-.614c.148-.148.146-.39-.006-.535L6.851 13.07h10.298l-2.287 2.188c-.152.145-.154.387-.006.535l.614.614c.146.146.384.146.53 0l3.89-3.884c.147-.147.147-.384 0-.53L16 8.11c-.146-.147-.384-.147-.53 0l-.614.613c-.148.149-.146.39.006.536l2.287 2.187H6.851L9.138 9.26c.152-.146.154-.387.006-.536L8.53 8.11c-.146-.147-.384-.147-.53 0l-3.89 3.884c-.147.146-.147.383 0 .53L8 16.408c.146.146.384.146.53 0z"/>
</svg>
