<svg xmlns="http://www.w3.org/2000/svg" width="24" height="24" viewBox="0 0 24 24">
    <path fill="#414141" d="M16.5 20.003c.828 0 1.5-.672 1.5-1.5V8.125c0-.397-.16-.781-.44-1.063l-2.623-2.621c-.28-.282-.662-.441-1.059-.441H7.5c-.828.003-1.5.675-1.5 1.503v13c0 .828.672 1.5 1.5 1.5h9zm0-1.5h-9v-13h5v3.25c0 .416.334.75.75.75h3.25v9zm-.122-10.5H14V5.625l2.378 2.378zM10 12.503c.828 0 1.5-.672 1.5-1.5s-.672-1.5-1.5-1.5-1.5.672-1.5 1.5.672 1.5 1.5 1.5zm5.5 4.5v-4l-.734-.734c-.147-.147-.385-.147-.532 0L11.5 15.003l-1.234-1.234c-.147-.147-.385-.147-.532 0L8.5 15.003v2h7z"/>
</svg>
