<svg xmlns="http://www.w3.org/2000/svg" width="24" height="24" viewBox="0 0 24 24">
    <path fill="#414141" d="M19.184 19.89l.707-.706c.146-.147.146-.384 0-.53l-3.794-3.795c-.072-.068-.166-.109-.266-.109h-.412C16.403 13.61 17 12.125 17 10.5 17 6.91 14.09 4 10.5 4S4 6.91 4 10.5 6.91 17 10.5 17c1.625 0 3.11-.597 4.25-1.581v.412c0 .1.037.194.11.266l3.793 3.794c.147.146.384.146.531 0zM10.5 15.5c-2.763 0-5-2.238-5-5 0-2.763 2.237-5 5-5 2.762 0 5 2.237 5 5 0 2.762-2.238 5-5 5zm2.875-4.25c.206 0 .375-.169.375-.375v-.75c0-.206-.169-.375-.375-.375h-5.75c-.206 0-.375.169-.375.375v.75c0 .206.169.375.375.375h5.75z"/>
</svg>
