<svg xmlns="http://www.w3.org/2000/svg" width="24" height="24" viewBox="0 0 24 24">
    <path fill="#414141" d="M12 19.5c4.276 0 7.743-3.463 7.75-7.738C19.757 7.5 16.287 4.013 12.025 4c-2.706-.008-5.09 1.37-6.482 3.464l.073-3.08C5.62 4.174 5.452 4 5.24 4h-.866C4.168 4 4 4.168 4 4.375v6c0 .207.168.375.375.375h6c.207 0 .375-.168.375-.375v-.866c0-.21-.173-.38-.384-.375l-3.95.094C7.376 7.103 9.514 5.625 12 5.625c3.386 0 6.125 2.74 6.125 6.125 0 3.386-2.74 6.125-6.125 6.125-1.566 0-2.993-.586-4.076-1.551-.148-.132-.375-.123-.515.017l-.617.617c-.152.152-.145.4.015.545C8.18 18.744 10.002 19.5 12 19.5z"/>
</svg>
