<svg xmlns="http://www.w3.org/2000/svg" width="24" height="24" viewBox="0 0 24 24">
    <path fill="#414141" d="M11.75 19.5c-4.276 0-7.743-3.463-7.75-7.738C3.993 7.5 7.463 4.013 11.725 4c2.706-.008 5.09 1.37 6.482 3.464l-.073-3.08c-.005-.21.164-.384.375-.384h.866c.207 0 .375.168.375.375v6c0 .207-.168.375-.375.375h-6c-.207 0-.375-.168-.375-.375v-.866c0-.21.173-.38.384-.375l3.95.094c-.96-2.125-3.098-3.603-5.584-3.603-3.386 0-6.125 2.74-6.125 6.125 0 3.386 2.74 6.125 6.125 6.125 1.566 0 2.993-.586 4.076-1.551.148-.132.375-.123.515.017l.617.617c.152.152.145.4-.015.545-1.374 1.241-3.195 1.997-5.193 1.997z"/>
</svg>
