<svg xmlns="http://www.w3.org/2000/svg" width="24" height="24" viewBox="0 0 24 24">
    <path fill="#414141" d="M18.625 19c.206 0 .375-.169.375-.375l-.003-4.25c0-.206-.169-.375-.375-.375h-.869c-.21 0-.378.172-.375.381l.072 1.919-.044.044L13.063 12l4.343-4.344.044.044-.072 1.919c-.003.21.166.381.375.381h.869c.206 0 .375-.169.375-.375L19 5.375c0-.206-.169-.375-.375-.375l-4.25.003c-.206 0-.375.169-.375.375v.869c0 .21.172.378.381.375L16.3 6.55l.044.044L12 10.937 7.656 6.595 7.7 6.55l1.919.072c.21.003.381-.166.381-.375v-.869c0-.206-.169-.375-.375-.375L5.375 5C5.169 5 5 5.169 5 5.375l.003 4.25c0 .206.169.375.375.375h.869c.21 0 .378-.172.375-.381L6.55 7.7l.044-.044L10.937 12l-4.343 4.344-.044-.044.072-1.919c.003-.21-.166-.381-.375-.381h-.869c-.206 0-.375.169-.375.375L5 18.625c0 .206.169.375.375.375l4.25-.003c.206 0 .375-.169.375-.375v-.869c0-.21-.172-.378-.381-.375L7.7 17.45l-.044-.044L12 13.063l4.344 4.343-.044.044-1.919-.072c-.21-.003-.381.166-.381.375v.869c0 .206.169.375.375.375l4.25.003z"/>
</svg>
