<svg xmlns="http://www.w3.org/2000/svg" width="24" height="24" viewBox="0 0 24 24">
    <path fill="#414141" d="M5.655 19c.024 0 .049-.001.073-.004l3.121-.345 9.638-9.638c.684-.683.684-1.791 0-2.475l-1.025-1.025C17.12 5.17 16.672 5 16.224 5c-.448 0-.895.17-1.237.512L12.95 7.55 12 8.5l-6.649 6.649-.347 3.123c-.044.393.266.729.65.729zm10.693-9.704L14.704 7.65l1.211-1.21c.112-.112.242-.129.31-.129.067 0 .197.017.309.128l1.025 1.026c.17.171.17.449 0 .619l-1.21 1.21zM6.4 17.6l.206-1.85 7.171-7.172 1.645 1.645-.849.848-6.325 6.325-1.848.204z"/>
</svg>
