<svg xmlns="http://www.w3.org/2000/svg" width="24" height="24" viewBox="0 0 24 24">
    <path fill="#414141" d="M12 18c3.415 0 6.398-2.052 7.903-5.082.054-.109.097-.296.097-.418s-.043-.31-.097-.418C18.397 9.05 15.415 7 12 7c-3.415 0-6.398 2.052-7.903 5.082-.054.109-.097.296-.097.418s.043.31.097.418C5.603 15.95 8.585 18 12 18zm0-1.375c-2.74 0-5.253-1.576-6.61-4.125C6.748 9.95 9.26 8.375 12 8.375s5.253 1.576 6.61 4.125c-1.357 2.55-3.87 4.125-6.61 4.125zm.01-.933c1.712 0 3.102-1.434 3.102-3.2 0-1.767-1.39-3.2-3.103-3.2H12c-.245.004-.634.068-.868.143.11.198.2.545.201.773 0 .886-.697 1.604-1.555 1.604-.222-.001-.558-.094-.75-.207-.067.24-.122.637-.122.887 0 1.766 1.39 3.2 3.103 3.2z"/>
</svg>
